<svg xmlns="http://www.w3.org/2000/svg" viewBox="0 0 48 48"><defs><style>.cls-1{fill:#7c7d7d;}.cls-2{fill:#919191;}.cls-3{fill:#dad7e5;}.cls-4{fill:#edebf2;}.cls-5{fill:#fc6;}.cls-6{fill:#ffde76;}.cls-7{fill:#db5669;}.cls-8{fill:#f26674;}.cls-9{fill:#f6ccaf;}.cls-10{fill:#ffdec7;}.cls-11{fill:#6fabe6;}.cls-12{fill:#82bcf4;}</style></defs><title>Copy Writing</title><g id="Copy_Writing" data-name="Copy Writing"><rect class="cls-1" x="1" y="1" width="46" height="8"/><path class="cls-2" d="M47,1V7H10A6,6,0,0,1,4,1H47Z"/><rect class="cls-3" x="1" y="9" width="46" height="30"/><path class="cls-4" d="M47,9V37H32A28,28,0,0,1,4,9H47Z"/><rect class="cls-5" x="36" y="20" width="6" height="22"/><path class="cls-6" d="M42,20V40h0a4,4,0,0,1-4-4V20Z"/><path class="cls-7" d="M42,17v3H36V17a3,3,0,0,1,.88-2.12,3.06,3.06,0,0,1,1.25-.75A3.1,3.1,0,0,1,39,14,3,3,0,0,1,42,17Z"/><path class="cls-8" d="M42,17v1H41a3,3,0,0,1-3-3h0a3.1,3.1,0,0,1,.13-.87A3.1,3.1,0,0,1,39,14,3,3,0,0,1,42,17Z"/><polygon class="cls-9" points="42 42 39.82 45.66 39.02 47 36 42 42 42"/><polygon class="cls-10" points="42 42 39.82 45.66 37.6 42 42 42"/><rect class="cls-11" x="6" y="14" width="14" height="8"/><path class="cls-12" d="M20,14v6H15a6,6,0,0,1-6-6H20Z"/><path class="cls-2" d="M32,17H24a1,1,0,0,1,0-2h8a1,1,0,0,1,0,2Z"/><path class="cls-2" d="M32,21H24a1,1,0,0,1,0-2h8a1,1,0,0,1,0,2Z"/><path class="cls-2" d="M32,27H6a1,1,0,0,1,0-2H32a1,1,0,0,1,0,2Z"/><path class="cls-2" d="M32,31H6a1,1,0,0,1,0-2H32a1,1,0,0,1,0,2Z"/><path class="cls-2" d="M32,35H6a1,1,0,0,1,0-2H32a1,1,0,0,1,0,2Z"/><path class="cls-4" d="M5,6a1,1,0,0,1-.92-.62A.84.84,0,0,1,4,5a1.05,1.05,0,0,1,.29-.71,1,1,0,0,1,.33-.21,1,1,0,0,1,.76,0,.9.9,0,0,1,.54.54A1,1,0,0,1,6,5,1,1,0,0,1,5,6Z"/><path class="cls-4" d="M9,6a1,1,0,0,1-.92-.62A.84.84,0,0,1,8,5a1.05,1.05,0,0,1,.29-.71,1,1,0,0,1,.33-.21,1,1,0,0,1,.76,0,.9.9,0,0,1,.54.54A1,1,0,0,1,10,5,1,1,0,0,1,9,6Z"/><path class="cls-4" d="M13,6a1,1,0,0,1-.92-.62A.84.84,0,0,1,12,5a1.05,1.05,0,0,1,.29-.71,1,1,0,0,1,.33-.21,1,1,0,0,1,.76,0,.9.9,0,0,1,.54.54A1,1,0,0,1,14,5a1,1,0,0,1-1,1Z"/></g></svg>